<svg width="22" height="25" viewBox="0 0 22 25" fill="none" xmlns="http://www.w3.org/2000/svg">
<path d="M1.54239 0.138957C1.38731 0.0494995 1.21065 0.00156974 1.03037 3.79063e-05C0.850086 -0.00149393 0.672598 0.0434267 0.515935 0.130236C0.359272 0.217045 0.229016 0.342649 0.138399 0.49429C0.0477814 0.645931 3.14411e-05 0.818206 0 0.993613V24.0064C3.14411e-05 24.1818 0.0477814 24.3541 0.138399 24.5057C0.229016 24.6573 0.359272 24.783 0.515935 24.8698C0.672598 24.9566 0.850086 25.0015 1.03037 25C1.21065 24.9984 1.38731 24.9505 1.54239 24.861L21.4998 13.3547C21.6522 13.2667 21.7785 13.1416 21.8662 12.9918C21.9539 12.8419 22 12.6724 22 12.5C22 12.3276 21.9539 12.1581 21.8662 12.0082C21.7785 11.8584 21.6522 11.7333 21.4998 11.6453L1.54239 0.138957Z" fill="white"/>
</svg>
